# xmcd CD database file
#
# Track frame offsets:
#	150
#	15920
#	31085
#
# Disc length: 630 seconds
#
# Revision: 1
# Processed by: cddbd v1.5.1PL0 Copyright (c) Steve Scherf et al.
# Submitted via: CDex 1.51
#
DISCID=10027403
DTITLE=Leinemann - Nick Nack!
DYEAR=1900
DGENRE=New Age
TTITLE0=Nick-Nack!
TTITLE1=Du kleines Ding, du!
TTITLE2=Nick Nack(Live im Kleiderschrank)
EXTD=
EXTT0=
EXTT1=
EXTT2=
PLAYORDER=
